<svg xmlns="http://www.w3.org/2000/svg" version="1.1" xmlns:xlink="http://www.w3.org/1999/xlink" xmlns:svgjs="http://svgjs.dev/svgjs" width="1000" height="1000" viewBox="0 0 1000 1000"><rect width="1000" height="1000" fill="#ffffff"></rect><g transform="matrix(0.7,0,0,0.7,149.57575757575756,337.7902319419352)"><svg viewBox="0 0 396 184" data-background-color="#a62a6c" preserveAspectRatio="xMidYMid meet" height="464" width="1000" xmlns="http://www.w3.org/2000/svg" xmlns:xlink="http://www.w3.org/1999/xlink"><g id="tight-bounds" transform="matrix(1,0,0,1,0.2400000000000091,-0.10776686365787214)"><svg viewBox="0 0 395.52 184.21553372731574" height="184.21553372731574" width="395.52"><g><svg viewBox="0 0 395.52 184.21553372731574" height="184.21553372731574" width="395.52"><g><svg viewBox="0 0 395.52 184.21553372731574" height="184.21553372731574" width="395.52"><g id="textblocktransform"><svg viewBox="0 0 395.52 184.21553372731574" height="184.21553372731574" width="395.52" id="textblock"><g><rect width="395.52" height="131.8878413642248" fill="none" stroke-width="9.018103199999999" stroke="#000000" data-fill-palette-color="none" data-stroke-palette-color="tertiary"></rect><rect width="395.52" height="52.327692363090925" y="131.8878413642248" fill="#000000" data-fill-palette-color="tertiary"></rect></g><g><svg viewBox="0 0 395.52 131.8878413642248" height="131.8878413642248" width="395.52"><g transform="matrix(1,0,0,1,23.607599999999998,23.607599999999998)"><svg width="348.3048" viewBox="2.4941859245300293 -35.900001525878906 197.6358184814453 48.05000305175781" height="84.6726413642248" data-palette-color="#edbbba"><path d="M18.3-13.65Q17.35-13.3 16.75-13.3L16.75-13.3Q15.65-13.3 14.68-14.05 13.7-14.8 13.05-16.1L13.05-16.1 14.45-17Q16.85-18.6 18-19.45L18-19.45Q21.85-22.45 24.7-25.05L24.7-25.05Q25.25-25.5 26-26.9L26-26.9 26.7-28.1 25.8-28.55Q25.65-28.6 25.13-28.83 24.6-29.05 24.25-29.1L24.25-29.1Q19.9-29.55 14.5-29.9L14.5-29.9Q12.8-30.05 12.3-28.05L12.3-28.05 8.1-8.6Q7.75-7.1 7.55-5.98 7.35-4.85 7.2-4.1L7.2-4.1 6.75-1.85Q6.55-1.05 6.1-0.58 5.65-0.1 4.8-0.05L4.8-0.05 4.15 0Q3.2 0 2.83-0.45 2.45-0.9 2.5-2.05L2.5-2.05 2.6-4.05Q2.9-9.95 3.35-12.9L3.35-12.9Q3.65-15.05 4.23-17.65 4.8-20.25 5-21.05L5-21.05Q5.7-23.95 6-25.45L6-25.45 3.4-25.9Q2.8-27.2 2.8-28.15L2.8-28.15Q2.8-29.75 4.3-31.4L4.3-31.4Q5.35-32.6 6.8-33.35 8.25-34.1 9.8-34.35L9.8-34.35Q12.05-34.6 13.8-34.6L13.8-34.6Q20.65-34.6 27.7-31.7L27.7-31.7Q28.55-31.35 29.4-30.63 30.25-29.9 30.5-29.7L30.5-29.7Q32.45-28.05 32.45-26.25L32.45-26.25Q32.45-25.05 31.7-23.6L31.7-23.6Q31.3-22.75 30.35-21.65L30.35-21.65Q25.7-16.55 18.3-13.65L18.3-13.65ZM37.9-26.7Q37.95-21.85 38.17-18.73 38.4-15.6 39.25-12.1L39.25-12.1Q41.35-12.85 43.1-12.85L43.1-12.85Q46.05-12.85 48.2-11.1 50.35-9.35 51.1-6.75L51.1-6.75Q51.7-4.85 51.7-1.65L51.7-1.65 51.65 2.25Q51.65 2.6 51.25 3.05 50.85 3.5 50.45 3.6L50.45 3.6Q50.3 3.65 50 3.65L50 3.65Q48.85 3.65 47.6 2.53 46.35 1.4 46.3 0.3L46.3 0.3 46.2-2.3Q46.2-3.2 46.1-4.9L46.1-4.9Q46-6.65 45.7-7.4L45.7-7.4Q45.4-8.25 44.95-8.7 44.5-9.15 43.95-9.15L43.95-9.15Q43.55-9.15 43.07-8.8 42.6-8.45 42.25-7.85L42.25-7.85Q41.2-6.2 39.5-1.35L39.5-1.35Q38.95 0.4 37.55 0.4L37.55 0.4Q37.4 0.4 36.9 0.3L36.9 0.3Q36.6 0.2 35.75-0.03 34.9-0.25 34.42-0.75 33.95-1.25 33.95-2.2L33.95-2.2Q33.95-11.65 32.8-17.85L32.8-17.85Q32.25-20.95 32.25-25L32.25-25 32.25-28.35 32.25-30.1Q32.25-30.8 33-31.3 33.75-31.8 34.7-31.8L34.7-31.8Q35.5-31.8 36.05-31.45L36.05-31.45Q37.05-30.85 37.47-29.95 37.9-29.05 37.9-27.7L37.9-27.7 37.9-26.7ZM67.59-3.35Q66.05-2.4 64.05-2.4L64.05-2.4Q61.85-2.4 59.82-3.53 57.8-4.65 56.6-6.75 55.4-8.85 55.6-11.55L55.6-11.55 55.85-12.75Q56.15-14.55 56.35-15.4L56.35-15.4Q56.8-17.25 58.15-18 59.5-18.75 61.75-19.2L61.75-19.2Q63.2-19.5 64.59-19.5L64.59-19.5Q69-19.5 72-16.55L72-16.55Q73.59-14.95 73.59-12.65L73.59-12.65Q73.59-10.4 71.95-7.8L71.95-7.8Q70.05-4.85 67.59-3.35L67.59-3.35ZM63.4-16.95Q62.6-15 61.7-12.1L61.7-12.1 61.2-10.6 61.55-10.45Q61.55-10.1 61.57-9.38 61.6-8.65 61.75-8.15L61.75-8.15Q62.3-6.6 63-6.25L63-6.25Q63.3-6.1 63.87-6.4 64.45-6.7 64.9-7.1L64.9-7.1Q65.59-7.7 67.15-9.6L67.15-9.6Q68.3-10.9 68.3-12.7L68.3-12.7Q68.3-14.25 67.42-15.5 66.55-16.75 65-17.2L65-17.2Q64.84-17.25 64.45-17.25L64.45-17.25Q63.5-17.25 63.4-16.95L63.4-16.95ZM76.69-18.65Q76.34-19.05 76.22-19.5 76.09-19.95 75.99-20.75L75.99-20.75Q76.44-21.8 77.64-21.8L77.64-21.8Q78.24-21.7 78.49-21.7L78.49-21.7Q79.49-21.7 79.74-22.3 79.99-22.9 79.99-23.7 79.99-24.5 79.99-24.95L79.99-24.95 80.14-27.95Q80.19-28.95 80.27-30.43 80.34-31.9 80.44-33.85L80.44-33.85Q80.49-34.9 80.97-35.4 81.44-35.9 82.29-35.9L82.29-35.9Q82.89-35.9 83.24-35.8L83.24-35.8Q85.29-35.35 85.99-34.5 86.69-33.65 86.94-31.95L86.94-31.95Q86.99-31.6 86.84-30.5L86.84-30.5 85.94-22.7Q85.89-22.4 85.79-21.98 85.69-21.55 85.69-21.35L85.69-21.35Q85.69-20.9 86.19-20.75 86.69-20.6 88.04-20.65L88.04-20.65Q90.34-21.15 91.54-21.3L91.54-21.3Q91.79-21.35 92.34-21.35L92.34-21.35Q92.94-21.35 93.14-21.2L93.14-21.2Q93.34-21.1 93.47-20.63 93.59-20.15 93.59-19.55L93.59-19.55Q93.59-19 93.47-18.55 93.34-18.1 93.14-18.05L93.14-18.05Q91.79-17.65 89.94-17.4L89.94-17.4Q87.74-17 86.69-16.7L86.69-16.7Q86.14-16.55 85.59-15.95 85.04-15.35 84.99-14.85L84.99-14.85Q84.89-12.4 84.84-9.85L84.84-9.85Q84.79-7.9 84.99-5.95L84.99-5.95Q85.14-4.3 85.64-3.58 86.14-2.85 87.14-2.85L87.14-2.85Q87.94-2.85 89.44-3.4L89.44-3.4Q90.24-3.75 90.84-3.75L90.84-3.75Q91.79-3.75 92.19-2.7L92.19-2.7Q92.34-2.35 92.34-2L92.34-2Q92.34-1.35 91.87-0.95 91.39-0.55 90.59-0.25L90.59-0.25Q89.09 0.3 87.54 0.35L87.54 0.35Q85.44 0.35 83.59-0.68 81.74-1.7 80.67-3.55 79.59-5.4 79.74-7.8L79.74-7.8Q79.79-8.75 79.79-10.8L79.79-10.8Q79.79-14.05 79.54-17.4L79.54-17.4Q79.49-17.7 79.19-17.82 78.89-17.95 78.19-18.1L78.19-18.1Q77.04-18.3 76.69-18.65L76.69-18.65ZM108.44-3.35Q106.89-2.4 104.89-2.4L104.89-2.4Q102.69-2.4 100.67-3.53 98.64-4.65 97.44-6.75 96.24-8.85 96.44-11.55L96.44-11.55 96.69-12.75Q96.99-14.55 97.19-15.4L97.19-15.4Q97.64-17.25 98.99-18 100.34-18.75 102.59-19.2L102.59-19.2Q104.04-19.5 105.44-19.5L105.44-19.5Q109.84-19.5 112.84-16.55L112.84-16.55Q114.44-14.95 114.44-12.65L114.44-12.65Q114.44-10.4 112.79-7.8L112.79-7.8Q110.89-4.85 108.44-3.35L108.44-3.35ZM104.24-16.95Q103.44-15 102.54-12.1L102.54-12.1 102.04-10.6 102.39-10.45Q102.39-10.1 102.42-9.38 102.44-8.65 102.59-8.15L102.59-8.15Q103.14-6.6 103.84-6.25L103.84-6.25Q104.14-6.1 104.72-6.4 105.29-6.7 105.74-7.1L105.74-7.1Q106.44-7.7 107.99-9.6L107.99-9.6Q109.14-10.9 109.14-12.7L109.14-12.7Q109.14-14.25 108.27-15.5 107.39-16.75 105.84-17.2L105.84-17.2Q105.69-17.25 105.29-17.25L105.29-17.25Q104.34-17.25 104.24-16.95L104.24-16.95ZM125.89-15.7Q125.89-13.9 126.06-13.35 126.24-12.8 126.94-12.8L126.94-12.8Q127.59-12.8 128.99-13.1L128.99-13.1 130.14-13.1Q132.99-13.1 133.64-11.85L133.64-11.85Q133.89-11.75 134.14-11.33 134.39-10.9 134.49-10.75L134.49-10.75Q134.29-10.6 133.89-10.28 133.49-9.95 133.14-9.9L133.14-9.9Q131.99-9.65 129.69-9.25L129.69-9.25Q129.24-9.2 128.09-9L128.09-9Q126.29-8.65 126.29-6.9L126.29-6.9Q126.29-6.65 126.39-5.95L126.39-5.95Q126.99-3.25 127.39-1.23 127.79 0.8 128.04 2.15L128.04 2.15 128.94 6.55Q129.44 8.95 129.44 10.25L129.44 10.25Q129.44 11.2 128.99 11.68 128.54 12.15 127.24 12.15L127.24 12.15Q126.14 12.15 125.59 11.6 125.04 11.05 124.79 9.85L124.79 9.85Q124.34 7.55 123.24 2.95L123.24 2.95 121.64-5.35Q121.54-8.25 118.79-8.25L118.79-8.25Q117.89-8.25 117.54-8.55L117.54-8.55Q117.24-8.8 116.99-9.13 116.74-9.45 116.74-9.75L116.74-9.75Q116.74-10 117.06-10.33 117.39-10.65 117.69-10.7L117.69-10.7Q119.49-10.95 120.11-11.7 120.74-12.45 120.79-14.05L120.79-14.05 120.89-17.25Q120.94-19.35 121.04-21.55 121.14-23.75 121.39-25.45L121.39-25.45Q121.59-26.9 122.64-27.58 123.69-28.25 125.54-28.25L125.54-28.25Q126.34-28.25 126.79-28.2L126.79-28.2Q127.84-28.1 129.19-27.23 130.54-26.35 130.64-25.35L130.64-25.35Q131.14-22.5 128.54-22.25L128.54-22.25Q126.84-22.6 126.54-21.85 126.24-21.1 126.14-20L126.14-20Q126.14-19.35 126.04-18.15L126.04-18.15Q125.89-16.95 125.89-15.7L125.89-15.7ZM148.28-3.35Q146.74-2.4 144.74-2.4L144.74-2.4Q142.53-2.4 140.51-3.53 138.49-4.65 137.28-6.75 136.09-8.85 136.28-11.55L136.28-11.55 136.53-12.75Q136.84-14.55 137.03-15.4L137.03-15.4Q137.49-17.25 138.84-18 140.19-18.75 142.44-19.2L142.44-19.2Q143.89-19.5 145.28-19.5L145.28-19.5Q149.69-19.5 152.69-16.55L152.69-16.55Q154.29-14.95 154.29-12.65L154.29-12.65Q154.29-10.4 152.64-7.8L152.64-7.8Q150.74-4.85 148.28-3.35L148.28-3.35ZM144.09-16.95Q143.28-15 142.39-12.1L142.39-12.1 141.89-10.6 142.24-10.45Q142.24-10.1 142.26-9.38 142.28-8.65 142.44-8.15L142.44-8.15Q142.99-6.6 143.69-6.25L143.69-6.25Q143.99-6.1 144.56-6.4 145.14-6.7 145.59-7.1L145.59-7.1Q146.28-7.7 147.84-9.6L147.84-9.6Q148.99-10.9 148.99-12.7L148.99-12.7Q148.99-14.25 148.11-15.5 147.24-16.75 145.69-17.2L145.69-17.2Q145.53-17.25 145.14-17.25L145.14-17.25Q144.19-17.25 144.09-16.95L144.09-16.95ZM163.93-2.3Q164.93-3.5 165.38-4.2L165.38-4.2Q165.93-4.95 166.53-4.95L166.53-4.95Q167.13-4.95 167.43-4.2L167.43-4.2Q168.13-2.2 168.13-1.05L168.13-1.05Q168.13-0.55 168.08-0.3L168.08-0.3Q167.88 0.7 166.96 1.1 166.03 1.5 164.78 1.4L164.78 1.4Q164.33 1.4 163.26 1.4 162.18 1.4 161.41 1.1 160.63 0.8 160.03 0.1L160.03 0.1Q158.73-1.45 158.73-2.9L158.73-2.9Q158.73-14.6 158.63-20.5L158.63-20.5 158.58-29.3Q158.58-31.05 158.23-32.5L158.23-32.5Q158.18-32.75 158.18-33.1L158.18-33.1Q158.18-34.95 160.68-34.95L160.68-34.95Q162.33-34.95 163.46-33.88 164.58-32.8 164.48-31.05L164.48-31.05Q164.33-28.4 164.08-23.1L164.08-23.1 163.78-17.1Q163.38-8.6 163.23-4.35L163.23-4.35Q163.18-3.85 163.28-3.25 163.38-2.65 163.43-2.5L163.43-2.5 163.93-2.3ZM176.38-23.3Q176.28-23 175.66-22.65 175.03-22.3 174.63-22L174.63-22 173.23-22.75Q171.18-23.85 170.43-24.5L170.43-24.5Q170.03-24.8 170.03-25.25L170.03-25.25Q170.03-25.55 170.25-25.78 170.48-26 170.93-26L170.93-26Q172.88-26 175.68-25L175.68-25Q175.98-24.95 176.23-24.33 176.48-23.7 176.38-23.3L176.38-23.3ZM171.88-14Q172.03-14.65 172.08-14.95 172.13-15.25 172.13-15.6L172.13-15.6Q172.13-16.3 172.56-16.7 172.98-17.1 174.18-17.1L174.18-17.1Q175.58-17.1 176.66-16.23 177.73-15.35 177.98-13.95L177.98-13.95Q178.13-13.25 178.18-12.4 178.23-11.55 178.23-11.3L178.23-11.3 178.93-2.75Q179.08-1.4 178.56-0.68 178.03 0.05 176.58 0.05L176.58 0.05Q175.33 0.05 174.46-0.65 173.58-1.35 173.38-2.45L173.38-2.45 172.08-13.05 171.88-14ZM194.13-3.35Q192.58-2.4 190.58-2.4L190.58-2.4Q188.38-2.4 186.35-3.53 184.33-4.65 183.13-6.75 181.93-8.85 182.13-11.55L182.13-11.55 182.38-12.75Q182.68-14.55 182.88-15.4L182.88-15.4Q183.33-17.25 184.68-18 186.03-18.75 188.28-19.2L188.28-19.2Q189.73-19.5 191.13-19.5L191.13-19.5Q195.53-19.5 198.53-16.55L198.53-16.55Q200.13-14.95 200.13-12.65L200.13-12.65Q200.13-10.4 198.48-7.8L198.48-7.8Q196.58-4.85 194.13-3.35L194.13-3.35ZM189.93-16.95Q189.13-15 188.23-12.1L188.23-12.1 187.73-10.6 188.08-10.45Q188.08-10.1 188.1-9.38 188.13-8.65 188.28-8.15L188.28-8.15Q188.83-6.6 189.53-6.25L189.53-6.25Q189.83-6.1 190.4-6.4 190.98-6.7 191.43-7.1L191.43-7.1Q192.13-7.7 193.68-9.6L193.68-9.6Q194.83-10.9 194.83-12.7L194.83-12.7Q194.83-14.25 193.95-15.5 193.08-16.75 191.53-17.2L191.53-17.2Q191.38-17.25 190.98-17.25L190.98-17.25Q190.03-17.25 189.93-16.95L189.93-16.95Z" opacity="1" transform="matrix(1,0,0,1,0,0)" fill="#000000" class="wordmark-text-0" data-fill-palette-color="primary" id="text-0"></path></svg></g></svg></g></svg></g></svg></g><g></g></svg></g><defs></defs></svg><rect width="395.52" height="184.21553372731574" fill="none" stroke="none" visibility="hidden"></rect></g></svg></g></svg>